Coordinates
version=1
nRows=28
nColumns=38
inDegrees=no

Units are S.I. units (second, meters, Newtons, ...)
If the header above contains a line with 'inDegrees', this indicates whether rotational values are in degrees (yes) or radians (no).

endheader
time	pelvis_tilt	pelvis_list	pelvis_rotation	pelvis_tx	pelvis_ty	pelvis_tz	hip_flexion_r	hip_adduction_r	hip_rotation_r	knee_angle_r	ankle_angle_r	subtalar_angle_r	mtp_angle_r	hip_flexion_l	hip_adduction_l	hip_rotation_l	knee_angle_l	ankle_angle_l	subtalar_angle_l	mtp_angle_l	lumbar_extension	lumbar_bending	lumbar_rotation	arm_flex_r	arm_add_r	arm_rot_r	elbow_flex_r	pro_sup_r	wrist_flex_r	wrist_dev_r	arm_flex_l	arm_add_l	arm_rot_l	elbow_flex_l	pro_sup_l	wrist_flex_l	wrist_dev_l
25	-0.237361	1.43141	1.79876	0.65255	0.831774	0.96537	0.541804	-0.196718	-0.169794	0.979163	-0.0282994	0	0	0.457406	-0.114356	-0.332178	0.886452	-0.0983527	0	0	-0.125942	0.274433	-0.182737	0.450699	-0.349	0.276295	0	1.5708	0	0	-0.122174	-0.284952	0.305514	0.71808	1.23415	0	0
25.01	-0.219671	1.43202	1.78413	0.652364	0.832391	0.969246	0.531253	-0.193746	-0.174585	0.960527	-0.0374747	0	0	0.448796	-0.113652	-0.331682	0.86547	-0.109134	0	0	-0.121282	0.271473	-0.188291	0.445734	-0.344968	0.276119	0	1.5708	0	0	-0.127143	-0.284762	0.298898	0.720532	1.23574	0	0
25.02	-0.200271	1.43273	1.76795	0.652159	0.83298	0.973084	0.520335	-0.190283	-0.179286	0.941914	-0.0460309	0	0	0.440105	-0.112851	-0.330383	0.844275	-0.119814	0	0	-0.116799	0.268649	-0.193793	0.440866	-0.341002	0.275952	0	1.5708	0	0	-0.13203	-0.284575	0.291997	0.723296	1.23788	0	0
25.03	-0.177811	1.43311	1.749	0.651953	0.833481	0.976847	0.509859	-0.186456	-0.184212	0.922502	-0.0547332	0	0	0.431971	-0.112048	-0.327684	0.823008	-0.130426	0	0	-0.112248	0.266173	-0.19937	0.436231	-0.337146	0.275904	0	1.5708	0	0	-0.136745	-0.284423	0.284749	0.72649	1.24041	0	0
25.04	-0.155457	1.4329	1.73051	0.651727	0.834028	0.980498	0.499954	-0.182933	-0.189186	0.90273	-0.0638213	0	0	0.424175	-0.111165	-0.325045	0.801457	-0.14111	0	0	-0.107008	0.263502	-0.205163	0.431256	-0.333365	0.275334	0	1.5708	0	0	-0.141507	-0.284313	0.277498	0.729747	1.24344	0	0
25.05	-0.132635	1.43265	1.71194	0.651455	0.834586	0.984088	0.489474	-0.179288	-0.194363	0.882698	-0.072699	0	0	0.416198	-0.110394	-0.322429	0.779616	-0.152063	0	0	-0.10151	0.260803	-0.211121	0.426061	-0.329664	0.274105	0	1.5708	0	0	-0.14611	-0.284075	0.270148	0.732788	1.24682	0	0
25.06	-0.109137	1.43245	1.69236	0.651194	0.835123	0.987619	0.478984	-0.175115	-0.198732	0.862022	-0.0817986	0	0	0.408021	-0.10979	-0.320032	0.757539	-0.163178	0	0	-0.0962504	0.258137	-0.21644	0.421089	-0.326117	0.27186	0	1.5708	0	0	-0.150368	-0.283739	0.262901	0.735687	1.25066	0	0
25.07	-0.0840977	1.43207	1.67192	0.650866	0.835732	0.99109	0.468528	-0.171201	-0.204428	0.84219	-0.0910068	0	0	0.400055	-0.109092	-0.316778	0.735439	-0.174433	0	0	-0.0905555	0.255696	-0.221996	0.415779	-0.323068	0.269554	0	1.5708	0	0	-0.154339	-0.283326	0.256311	0.738176	1.25495	0	0
25.08	-0.0709799	1.42885	1.66549	0.650695	0.836629	0.994534	0.460101	-0.169786	-0.211757	0.821575	-0.104448	0	0	0.394524	-0.105668	-0.311289	0.711798	-0.191562	0	0	-0.0811739	0.248292	-0.226107	0.337873	-0.381853	0.674108	0.153458	1.15998	0	0	-0.156134	-0.28907	0.264014	0.740697	1.24768	0	0
25.09	-0.0288638	1.4299	1.63125	0.649746	0.837445	0.997813	0.446391	-0.16548	-0.224282	0.800031	-0.123787	0	0	0.385563	-0.106115	-0.30388	0.690152	-0.210828	0	0	-0.077605	0.251316	-0.239232	0.404507	-0.316708	0.267362	0	1.5708	0	0	-0.167343	-0.273833	0.214137	0.743882	1.29341	0	0
25.1	-0.00426191	1.42968	1.61161	0.649362	0.838079	1.00121	0.434018	-0.160424	-0.228841	0.775807	-0.134588	0	0	0.376917	-0.105143	-0.300021	0.667289	-0.22299	0	0	-0.0728034	0.248516	-0.243559	0.39867	-0.314031	0.265252	0	1.5708	0	0	-0.169785	-0.274281	0.210156	0.746704	1.29659	0	0
25.11	-0.00267399	1.42805	1.61932	0.64895	0.839314	1.00373	0.415798	-0.164628	-0.236963	0.733703	-0.146958	0	0	0.36991	-0.100011	-0.294247	0.645851	-0.235338	0	0	-0.061719	0.240335	-0.253008	0.388491	-0.309713	0.260788	0	1.5708	0	0	-0.177616	-0.277293	0.205135	0.752635	1.30004	0	0
25.12	0.0171157	1.42552	1.6047	0.648649	0.840207	1.00656	0.407884	-0.160695	-0.24333	0.716349	-0.141578	0	0	0.363801	-0.0990656	-0.291501	0.624919	-0.232411	0	0	-0.0511025	0.236838	-0.260176	0.377678	-0.307633	0.303281	0	1.56824	0	0	-0.182099	-0.280828	0.211901	0.754536	1.28776	0	0
25.13	0.0394552	1.4248	1.58703	0.648341	0.841008	1.00958	0.397094	-0.1557	-0.25011	0.696236	-0.148225	0	0	0.355225	-0.0985464	-0.288082	0.6027	-0.241452	0	0	-0.045544	0.233338	-0.261636	0.371301	-0.305513	0.283321	0	1.5708	0	0	-0.183364	-0.281963	0.210929	0.756805	1.28954	0	0
25.14	0.0615096	1.42527	1.56956	0.648041	0.841792	1.01265	0.384534	-0.150626	-0.256767	0.674339	-0.158334	0	0	0.345188	-0.0978181	-0.284298	0.579937	-0.25432	0	0	-0.0414326	0.229821	-0.262014	0.364717	-0.3038	0.266211	0	1.5708	0	0	-0.183363	-0.283377	0.211022	0.758462	1.29203	0	0
25.15	0.081565	1.42551	1.55404	0.64771	0.842659	1.01557	0.372311	-0.145981	-0.263132	0.652651	-0.168007	0	0	0.335287	-0.0968517	-0.281526	0.557234	-0.266577	0	0	-0.0364926	0.225902	-0.262932	0.357315	-0.302137	0.256538	0	1.5708	0	0	-0.184216	-0.284644	0.210581	0.760149	1.29377	0	0
25.16	0.100247	1.42617	1.54001	0.64734	0.843569	1.01842	0.359476	-0.141625	-0.269638	0.630701	-0.177942	0	0	0.32494	-0.0958229	-0.278675	0.534926	-0.279087	0	0	-0.032002	0.221635	-0.263837	0.34949	-0.300478	0.249203	0	1.5708	0	0	-0.185429	-0.285701	0.208891	0.762263	1.29529	0	0
25.17	0.117646	1.42756	1.52566	0.647141	0.844355	1.02124	0.346584	-0.137201	-0.275498	0.609232	-0.189043	0	0	0.313779	-0.0952541	-0.277073	0.513165	-0.29267	0	0	-0.0292449	0.217094	-0.262765	0.34225	-0.298736	0.242643	0	1.5708	0	0	-0.186278	-0.286672	0.205721	0.764773	1.29747	0	0
25.18	0.140257	1.42993	1.50696	0.646864	0.845148	1.02411	0.331332	-0.1326	-0.28439	0.5851	-0.216189	0	0	0.30139	-0.0947155	-0.273229	0.490299	-0.320476	0	0	-0.029517	0.213189	-0.263328	0.337682	-0.296215	0.227397	0	1.5708	0	0	-0.190111	-0.280639	0.178574	0.768714	1.32299	0	0
25.19	0.161891	1.42929	1.49184	0.64638	0.846327	1.02659	0.31845	-0.129045	-0.296375	0.562804	-0.226883	0	0	0.292975	-0.093931	-0.268135	0.469792	-0.332744	0	0	-0.0223792	0.209113	-0.266559	0.328629	-0.294372	0.220915	0	1.5708	0	0	-0.193736	-0.280555	0.173021	0.771067	1.32548	0	0
25.2	0.185282	1.42955	1.47431	0.645927	0.847486	1.02908	0.304442	-0.124881	-0.307777	0.540035	-0.237717	0	0	0.28352	-0.093808	-0.264563	0.449581	-0.34497	0	0	-0.0166953	0.205392	-0.268937	0.320067	-0.292702	0.214858	0	1.5708	0	0	-0.197036	-0.280527	0.16768	0.77361	1.32729	0	0
25.21	0.210044	1.43098	1.45337	0.645665	0.848449	1.03158	0.289891	-0.119651	-0.316131	0.517508	-0.248576	0	0	0.272803	-0.0947444	-0.263148	0.430249	-0.356955	0	0	-0.0134179	0.201832	-0.269315	0.312609	-0.290653	0.2096	0	1.5708	0	0	-0.199796	-0.280999	0.162577	0.776795	1.32849	0	0
25.22	0.234494	1.43283	1.4313	0.645551	0.849253	1.034	0.275769	-0.113909	-0.321881	0.495534	-0.259491	0	0	0.261647	-0.0958757	-0.262573	0.411405	-0.368655	0	0	-0.0111063	0.198259	-0.268438	0.305891	-0.288386	0.204847	0	1.5708	0	0	-0.202448	-0.281719	0.157514	0.780247	1.32901	0	0
25.23	0.256838	1.43351	1.41269	0.645315	0.850257	1.03618	0.262055	-0.108643	-0.32955	0.472761	-0.270315	0	0	0.251947	-0.0964568	-0.260887	0.393084	-0.38006	0	0	-0.00624415	0.194236	-0.269195	0.297936	-0.28616	0.198829	0	1.5708	0	0	-0.206629	-0.282364	0.152445	0.78382	1.32909	0	0
25.24	0.277182	1.43373	1.39655	0.644999	0.851384	1.03817	0.248192	-0.103695	-0.338444	0.449131	-0.281044	0	0	0.242686	-0.0966438	-0.259139	0.374846	-0.391171	0	0	-0.000216827	0.189731	-0.270593	0.289398	-0.283771	0.19243	0	1.5708	0	0	-0.211723	-0.283213	0.14801	0.787428	1.32873	0	0
25.25	0.298123	1.43399	1.3798	0.644627	0.852531	1.04005	0.235043	-0.0989032	-0.347385	0.427049	-0.291659	0	0	0.233273	-0.0969426	-0.257725	0.356742	-0.401995	0	0	0.00581744	0.185384	-0.272104	0.281062	-0.281576	0.186159	0	1.5708	0	0	-0.216712	-0.283976	0.14437	0.790287	1.3274	0	0
25.26	0.336544	1.43439	1.34534	0.64412	0.853613	1.04222	0.223979	-0.0913116	-0.356447	0.410829	-0.302091	0	0	0.223274	-0.0998126	-0.256109	0.33895	-0.412744	0	0	0.00971308	0.184277	-0.273429	0.273865	-0.280156	0.179985	0	1.5708	0	0	-0.219646	-0.283817	0.142331	0.791138	1.32539	0	0
25.27	0.33737	1.43504	1.34904	0.643966	0.854922	1.0434	0.209502	-0.0898948	-0.363269	0.385229	-0.312149	0	0	0.214341	-0.0980407	-0.255907	0.322626	-0.422603	0	0	0.0174721	0.175593	-0.27638	0.264469	-0.275955	0.173858	0	1.5708	0	0	-0.228087	-0.287571	0.139783	0.79645	1.32311	0	0
